<svg xmlns="http://www.w3.org/2000/svg" width="24" height="24" viewBox="0 0 24 24">
  <path fill="#A7ADB3" fill-rule="evenodd" d="M8.922 12.09v11.076c0 .16.13.289.291.289h4.167c.161 0 .292-.13.292-.289V11.91h3.02c.152 0 .279-.115.292-.265l.29-3.391c.014-.168-.12-.312-.291-.312h-3.311V5.535c0-.564.463-1.021 1.034-1.021h2.328c.162 0 .292-.13.292-.289V.834c0-.16-.13-.289-.292-.289H13.1c-2.308 0-4.178 1.847-4.178 4.126v3.27H6.838c-.16 0-.293.13-.293.289v3.391c0 .16.132.29.293.29h2.084v.18"></path>
</svg>