<svg xmlns="http://www.w3.org/2000/svg" width="24" height="24" viewBox="0 0 24 24">
  <path fill="#A7ADB3" fill-rule="evenodd" d="M20.498 16.19c0 2.38-1.929 4.308-4.309 4.308H7.91c-2.379 0-4.308-1.929-4.308-4.308V7.91C3.601 5.53 5.53 3.6 7.91 3.6h8.28c2.38 0 4.308 1.929 4.308 4.309v8.28zm1.965-8.28c0-3.465-2.808-6.274-6.274-6.274H7.91c-3.464 0-6.273 2.81-6.273 6.274v8.28c0 3.464 2.809 6.273 6.274 6.273h8.28c3.465 0 6.273-2.809 6.273-6.273V7.91zm-10.378 7.57C10.27 15.48 8.79 14 8.79 12.183c0-1.816 1.479-3.294 3.295-3.294 1.817 0 3.295 1.478 3.295 3.294 0 1.817-1.478 3.295-3.295 3.295zm0-8.439c-2.836 0-5.143 2.307-5.143 5.143 0 2.837 2.307 5.143 5.143 5.143 2.837 0 5.143-2.306 5.143-5.143 0-2.836-2.306-5.143-5.143-5.143zm5.444-1.57c-.676 0-1.225.548-1.225 1.224 0 .676.549 1.225 1.225 1.225s1.224-.549 1.224-1.225-.548-1.224-1.224-1.224z"></path>
</svg>