<svg version="1.1" id="Layer_1" xmlns="http://www.w3.org/2000/svg" xmlns:xlink="http://www.w3.org/1999/xlink" x="0px" y="0px" viewBox="0 0 44 44" style="enable-background:new 0 0 44 44;" xml:space="preserve">
<style type="text/css">
	.st0{fill-rule:evenodd;clip-rule:evenodd;fill:#A7ADB3;}
	.st1{fill:#A70532;}
	.st2{fill:#223341;}
	.st3{fill:#A7ADB3;}
</style>
<path class="st0" d="M78.3-17.4c-4.2,0-8.1-1.2-11.3-3.3c0.6,0.1,1.2,0.1,1.8,0.1c3.5,0,6.6-1.2,9.2-3.2c-3.2-0.1-6-2.2-6.9-5.1  c0.5,0.1,0.9,0.1,1.4,0.1c0.7,0,1.3-0.1,1.9-0.3c-3.4-0.7-5.9-3.7-5.9-7.2v-0.1c1,0.6,2.1,0.9,3.3,0.9c-2-1.3-3.3-3.6-3.3-6.1  c0-1.4,0.4-2.6,1-3.7c3.6,4.5,9.1,7.4,15.2,7.7c-0.1-0.5-0.2-1.1-0.2-1.7c0-4.1,3.3-7.4,7.4-7.4c2.1,0,4,0.9,5.4,2.3  c1.7-0.3,3.3-0.9,4.7-1.8c-0.6,1.7-1.7,3.2-3.2,4.1c1.5-0.2,2.9-0.6,4.2-1.2c-1,1.5-2.2,2.8-3.7,3.8c0,0.3,0,0.6,0,1  C99.3-28.6,91.9-17.4,78.3-17.4"></path>
<path class="st0" d="M15.3-17.4c-4.2,0-8.1-1.2-11.3-3.3c0.6,0.1,1.2,0.1,1.8,0.1c3.5,0,6.6-1.2,9.2-3.2C11.7-23.8,9-26,8-28.9  c0.5,0.1,0.9,0.1,1.4,0.1c0.7,0,1.3-0.1,1.9-0.3c-3.4-0.7-5.9-3.7-5.9-7.2v-0.1c1,0.6,2.1,0.9,3.3,0.9c-2-1.3-3.3-3.6-3.3-6.1  c0-1.4,0.4-2.6,1-3.7c3.6,4.5,9.1,7.4,15.2,7.7c-0.1-0.5-0.2-1.1-0.2-1.7c0-4.1,3.3-7.4,7.4-7.4c2.1,0,4,0.9,5.4,2.3  c1.7-0.3,3.3-0.9,4.7-1.8c-0.6,1.7-1.7,3.2-3.2,4.1c1.5-0.2,2.9-0.6,4.2-1.2c-1,1.5-2.2,2.8-3.7,3.8c0,0.3,0,0.6,0,1  C36.3-28.6,28.9-17.4,15.3-17.4"></path>
<path class="st0" d="M-49.7-26.5c-4.2,0-8.1-1.2-11.3-3.3c0.6,0.1,1.2,0.1,1.8,0.1c3.5,0,6.6-1.2,9.2-3.2c-3.2-0.1-6-2.2-6.9-5.1  c0.5,0.1,0.9,0.1,1.4,0.1c0.7,0,1.3-0.1,1.9-0.3c-3.4-0.7-5.9-3.7-5.9-7.2v-0.1c1,0.6,2.1,0.9,3.3,0.9c-2-1.3-3.3-3.6-3.3-6.1  c0-1.4,0.4-2.6,1-3.7c3.6,4.5,9.1,7.4,15.2,7.7c-0.1-0.5-0.2-1.1-0.2-1.7c0-4.1,3.3-7.4,7.4-7.4c2.1,0,4,0.9,5.4,2.3  c1.7-0.3,3.3-0.9,4.7-1.8c-0.6,1.7-1.7,3.2-3.2,4.1c1.5-0.2,2.9-0.6,4.2-1.2c-1,1.5-2.2,2.8-3.7,3.8c0,0.3,0,0.6,0,1  C-28.7-37.8-36.1-26.5-49.7-26.5"></path>
<path class="st0" d="M-111.7,36.7c-4.2,0-8.1-1.2-11.3-3.3c0.6,0.1,1.2,0.1,1.8,0.1c3.5,0,6.6-1.2,9.2-3.2c-3.2-0.1-6-2.2-6.9-5.1  c0.5,0.1,0.9,0.1,1.4,0.1c0.7,0,1.3-0.1,1.9-0.3c-3.4-0.7-5.9-3.7-5.9-7.2v-0.1c1,0.6,2.1,0.9,3.3,0.9c-2-1.3-3.3-3.6-3.3-6.1  c0-1.4,0.4-2.6,1-3.7c3.6,4.5,9.1,7.4,15.2,7.7c-0.1-0.5-0.2-1.1-0.2-1.7c0-4.1,3.3-7.4,7.4-7.4c2.1,0,4,0.9,5.4,2.3  C-91,9.4-89.4,8.8-88,8c-0.6,1.7-1.7,3.2-3.2,4.1c1.5-0.2,2.9-0.6,4.2-1.2c-1,1.5-2.2,2.8-3.7,3.8c0,0.3,0,0.6,0,1  C-90.7,25.4-98.1,36.7-111.7,36.7"></path>
<path class="st1" d="M-28.2,110.2c-0.5,0-0.9,0.2-1.3,0.3h0c-0.4,0.2-2.3,1-5.2,2.2c-2.9,1.2-6.7,2.8-10.4,4.4  c-7.5,3.2-14.8,6.3-14.8,6.3l0.1,0c0,0-0.5,0.2-1,0.5c-0.3,0.2-0.6,0.4-0.8,0.8s-0.5,1-0.4,1.6c0.1,1,0.8,1.6,1.3,2  c0.5,0.3,0.9,0.5,0.9,0.5h0l6.9,2.3c0.3,1,2.1,6.9,2.5,8.2c0.3,0.8,0.5,1.3,0.8,1.7c0.1,0.2,0.3,0.4,0.5,0.5c0.1,0,0.2,0.1,0.3,0.1  c0,0,0.1,0,0.1,0l-0.1,0c0,0,0,0,0.1,0c0.1,0,0.1,0,0.2,0c1.1,0.3,2-0.3,2-0.3l0,0l4.1-3.7l6.8,5.2l0.2,0.1c1.4,0.6,2.9,0.3,3.6-0.3  c0.8-0.6,1.1-1.4,1.1-1.4l0-0.1l5.3-27c0.1-0.7,0.2-1.3,0-1.9c-0.2-0.6-0.6-1.2-1.1-1.5C-27.2,110.3-27.7,110.2-28.2,110.2z   M-28.3,113.1c0,0.1,0,0.1,0,0.2v0l-5.2,26.8c0,0-0.1,0.1-0.2,0.2c-0.1,0.1-0.2,0.1-0.7,0l-8.4-6.4l-5,4.6l1.1-6.8  c0,0,13.1-12.2,13.6-12.7c0.6-0.5,0.4-0.6,0.4-0.6c0-0.6-0.9-0.2-0.9-0.2l-17.2,10.7l0,0L-59,126v0c0,0,0,0,0,0c0,0,0,0,0,0l0,0l0,0  c0,0,7.4-3.1,14.9-6.3c3.7-1.6,7.5-3.2,10.4-4.4c2.9-1.2,5.1-2.1,5.2-2.2C-28.4,113.1-28.4,113.1-28.3,113.1z"></path>
<path class="st1" d="M36.8,118.1c-1.5-2.6-3.6-4.7-6.2-6.2s-5.5-2.3-8.6-2.3s-6,0.8-8.6,2.3c-2.6,1.5-4.7,3.6-6.2,6.2  c-1.5,2.6-2.3,5.5-2.3,8.6c0,3.5,0.9,6.6,2.8,9.4c1.9,2.8,4.4,4.9,7.4,6.3c-0.1-1.6,0-2.9,0.3-3.9l2.2-9.3c-0.4-0.7-0.6-1.6-0.6-2.7  c0-1.3,0.3-2.3,1-3.2c0.6-0.8,1.4-1.3,2.3-1.3c0.7,0,1.3,0.2,1.7,0.7c0.4,0.5,0.6,1.1,0.6,1.9c0,0.5-0.1,1-0.3,1.7  c-0.2,0.7-0.4,1.4-0.7,2.3c-0.3,0.9-0.5,1.6-0.6,2.1c-0.2,0.9,0,1.7,0.5,2.3c0.5,0.6,1.3,1,2.2,1c1.6,0,2.9-0.9,3.9-2.6  c1-1.8,1.5-3.9,1.5-6.4c0-1.9-0.6-3.5-1.9-4.7c-1.3-1.2-3-1.8-5.2-1.8c-2.5,0-4.5,0.8-6.1,2.4c-1.6,1.6-2.3,3.5-2.3,5.8  c0,1.3,0.4,2.5,1.1,3.4c0.3,0.3,0.3,0.6,0.2,1c0,0.1-0.1,0.3-0.2,0.7c-0.1,0.4-0.2,0.6-0.2,0.7c-0.1,0.5-0.4,0.6-0.8,0.4  c-1.1-0.5-2-1.3-2.6-2.5c-0.6-1.2-0.9-2.5-0.9-4.1c0-1,0.2-2,0.5-3c0.3-1,0.8-2,1.5-2.9c0.7-0.9,1.5-1.7,2.4-2.5  c0.9-0.7,2.1-1.3,3.4-1.7s2.8-0.6,4.4-0.6c2.1,0,4,0.5,5.7,1.4s3,2.1,3.8,3.6c0.9,1.5,1.3,3.1,1.3,4.8c0,2.2-0.4,4.2-1.2,6  c-0.8,1.8-1.9,3.2-3.3,4.2c-1.4,1-3,1.5-4.8,1.5c-0.9,0-1.8-0.2-2.5-0.6s-1.3-0.9-1.6-1.5c-0.7,2.6-1.1,4.2-1.2,4.7  c-0.3,1.1-0.9,2.3-1.7,3.7c1.6,0.5,3.2,0.7,4.9,0.7c3.1,0,6-0.8,8.6-2.3c2.6-1.5,4.7-3.6,6.2-6.2c1.5-2.6,2.3-5.5,2.3-8.6  C39.1,123.6,38.3,120.7,36.8,118.1z"></path>
<path class="st2" d="M-28.2,55.8c-0.5,0-0.9,0.2-1.3,0.3h0c-0.4,0.2-2.3,1-5.2,2.2c-2.9,1.2-6.7,2.8-10.4,4.4  C-52.7,65.9-60,69-60,69l0.1,0c0,0-0.5,0.2-1,0.5c-0.3,0.2-0.6,0.4-0.8,0.8c-0.3,0.4-0.5,1-0.4,1.6c0.1,1,0.8,1.6,1.3,2  c0.5,0.3,0.9,0.5,0.9,0.5h0l6.9,2.3c0.3,1,2.1,6.9,2.5,8.2c0.3,0.8,0.5,1.3,0.8,1.7c0.1,0.2,0.3,0.4,0.5,0.5c0.1,0,0.2,0.1,0.3,0.1  c0,0,0.1,0,0.1,0l-0.1,0c0,0,0,0,0.1,0c0.1,0,0.1,0,0.2,0c1.1,0.3,2-0.3,2-0.3l0,0l4.1-3.7l6.8,5.2l0.2,0.1c1.4,0.6,2.9,0.3,3.6-0.3  c0.8-0.6,1.1-1.4,1.1-1.4l0-0.1l5.3-27c0.1-0.7,0.2-1.3,0-1.9c-0.2-0.6-0.6-1.2-1.1-1.5C-27.2,55.9-27.7,55.8-28.2,55.8z   M-28.3,58.7c0,0.1,0,0.1,0,0.2v0l-5.2,26.8c0,0-0.1,0.1-0.2,0.2c-0.1,0.1-0.2,0.1-0.7,0l-8.4-6.4l-5,4.6l1.1-6.8  c0,0,13.1-12.2,13.6-12.7c0.6-0.5,0.4-0.6,0.4-0.6c0-0.6-0.9-0.2-0.9-0.2l-17.2,10.7l0,0l-8.2-2.8v0c0,0,0,0,0,0c0,0,0,0,0,0l0,0  l0,0c0,0,7.4-3.1,14.9-6.3c3.7-1.6,7.5-3.2,10.4-4.4c2.9-1.2,5.1-2.1,5.2-2.2C-28.4,58.7-28.4,58.7-28.3,58.7z"></path>
<path class="st2" d="M36.8,63.7c-1.5-2.6-3.6-4.7-6.2-6.2s-5.5-2.3-8.6-2.3s-6,0.8-8.6,2.3c-2.6,1.5-4.7,3.6-6.2,6.2  c-1.5,2.6-2.3,5.5-2.3,8.6c0,3.5,0.9,6.6,2.8,9.4c1.9,2.8,4.4,4.9,7.4,6.3c-0.1-1.6,0-2.9,0.3-3.9l2.2-9.3c-0.4-0.7-0.6-1.6-0.6-2.7  c0-1.3,0.3-2.3,1-3.2c0.6-0.8,1.4-1.3,2.3-1.3c0.7,0,1.3,0.2,1.7,0.7c0.4,0.5,0.6,1.1,0.6,1.9c0,0.5-0.1,1-0.3,1.7  c-0.2,0.7-0.4,1.4-0.7,2.3c-0.3,0.9-0.5,1.6-0.6,2.1c-0.2,0.9,0,1.7,0.5,2.3c0.5,0.6,1.3,1,2.2,1c1.6,0,2.9-0.9,3.9-2.6  c1-1.8,1.5-3.9,1.5-6.4c0-1.9-0.6-3.5-1.9-4.7c-1.3-1.2-3-1.8-5.2-1.8c-2.5,0-4.5,0.8-6.1,2.4c-1.6,1.6-2.3,3.5-2.3,5.8  c0,1.3,0.4,2.5,1.1,3.4c0.3,0.3,0.3,0.6,0.2,1c0,0.1-0.1,0.3-0.2,0.7c-0.1,0.4-0.2,0.6-0.2,0.7c-0.1,0.5-0.4,0.6-0.8,0.4  c-1.1-0.5-2-1.3-2.6-2.5c-0.6-1.2-0.9-2.5-0.9-4.1c0-1,0.2-2,0.5-3s0.8-2,1.5-2.9c0.7-0.9,1.5-1.7,2.4-2.5c0.9-0.7,2.1-1.3,3.4-1.7  c1.4-0.4,2.8-0.6,4.4-0.6c2.1,0,4,0.5,5.7,1.4s3,2.1,3.8,3.6c0.9,1.5,1.3,3.1,1.3,4.8c0,2.2-0.4,4.2-1.2,6c-0.8,1.8-1.9,3.2-3.3,4.2  c-1.4,1-3,1.5-4.8,1.5c-0.9,0-1.8-0.2-2.5-0.6c-0.8-0.4-1.3-0.9-1.6-1.5c-0.7,2.6-1.1,4.2-1.2,4.7c-0.3,1.1-0.9,2.3-1.7,3.7  c1.6,0.5,3.2,0.7,4.9,0.7c3.1,0,6-0.8,8.6-2.3c2.6-1.5,4.7-3.6,6.2-6.2c1.5-2.6,2.3-5.5,2.3-8.6S38.3,66.3,36.8,63.7z"></path>
<path class="st3" d="M-28.2,6c-0.5,0-0.9,0.2-1.3,0.3h0c-0.4,0.2-2.3,1-5.2,2.2c-2.9,1.2-6.7,2.8-10.4,4.4C-52.7,16-60,19.1-60,19.1  l0.1,0c0,0-0.5,0.2-1,0.5c-0.3,0.2-0.6,0.4-0.8,0.8s-0.5,1-0.4,1.6c0.1,1,0.8,1.6,1.3,2c0.5,0.3,0.9,0.5,0.9,0.5h0l6.9,2.3  c0.3,1,2.1,6.9,2.5,8.2c0.3,0.8,0.5,1.3,0.8,1.7c0.1,0.2,0.3,0.4,0.5,0.5c0.1,0,0.2,0.1,0.3,0.1c0,0,0.1,0,0.1,0l-0.1,0  c0,0,0,0,0.1,0c0.1,0,0.1,0,0.2,0c1.1,0.3,2-0.3,2-0.3l0,0l4.1-3.7l6.8,5.2l0.2,0.1c1.4,0.6,2.9,0.3,3.6-0.3  c0.8-0.6,1.1-1.4,1.1-1.4l0-0.1l5.3-27c0.1-0.7,0.2-1.3,0-1.9c-0.2-0.6-0.6-1.2-1.1-1.5C-27.2,6-27.7,5.9-28.2,6z M-28.3,8.9  c0,0.1,0,0.1,0,0.2v0l-5.2,26.8c0,0-0.1,0.1-0.2,0.2c-0.1,0.1-0.2,0.1-0.7,0l-8.4-6.4l-5,4.6l1.1-6.8c0,0,13.1-12.2,13.6-12.7  c0.6-0.5,0.4-0.6,0.4-0.6c0-0.6-0.9-0.2-0.9-0.2l-17.2,10.7l0,0l-8.2-2.8v0c0,0,0,0,0,0c0,0,0,0,0,0l0,0l0,0c0,0,7.4-3.1,14.9-6.3  c3.7-1.6,7.5-3.2,10.4-4.4c2.9-1.2,5.1-2.1,5.2-2.2C-28.4,8.9-28.4,8.9-28.3,8.9z"></path>
<path class="st3" d="M36.8,13.4c-1.5-2.6-3.6-4.7-6.2-6.2S25.1,4.9,22,4.9s-6,0.8-8.6,2.3c-2.6,1.5-4.7,3.6-6.2,6.2  C5.7,16,4.9,18.9,4.9,22c0,3.5,0.9,6.6,2.8,9.4s4.4,4.9,7.4,6.3c-0.1-1.6,0-2.9,0.3-3.9l2.2-9.3c-0.4-0.7-0.6-1.6-0.6-2.7  c0-1.3,0.3-2.3,1-3.2c0.6-0.8,1.4-1.3,2.3-1.3c0.7,0,1.3,0.2,1.7,0.7c0.4,0.5,0.6,1.1,0.6,1.9c0,0.5-0.1,1-0.3,1.7  c-0.2,0.7-0.4,1.4-0.7,2.3c-0.3,0.9-0.5,1.6-0.6,2.1c-0.2,0.9,0,1.7,0.5,2.3c0.5,0.6,1.3,1,2.2,1c1.6,0,2.9-0.9,3.9-2.6  c1-1.8,1.5-3.9,1.5-6.4c0-1.9-0.6-3.5-1.9-4.7c-1.3-1.2-3-1.8-5.2-1.8c-2.5,0-4.5,0.8-6.1,2.4c-1.6,1.6-2.3,3.5-2.3,5.8  c0,1.3,0.4,2.5,1.1,3.4c0.3,0.3,0.3,0.6,0.2,1c0,0.1-0.1,0.3-0.2,0.7c-0.1,0.4-0.2,0.6-0.2,0.7c-0.1,0.5-0.4,0.6-0.8,0.4  c-1.1-0.5-2-1.3-2.6-2.5c-0.6-1.2-0.9-2.5-0.9-4.1c0-1,0.2-2,0.5-3s0.8-2,1.5-2.9c0.7-0.9,1.5-1.7,2.4-2.5c0.9-0.7,2.1-1.3,3.4-1.7  c1.4-0.4,2.8-0.6,4.4-0.6c2.1,0,4,0.5,5.7,1.4c1.7,0.9,3,2.1,3.8,3.6c0.9,1.5,1.3,3.1,1.3,4.8c0,2.2-0.4,4.2-1.2,6  c-0.8,1.8-1.9,3.2-3.3,4.2c-1.4,1-3,1.5-4.8,1.5c-0.9,0-1.8-0.2-2.5-0.6c-0.8-0.4-1.3-0.9-1.6-1.5c-0.7,2.6-1.1,4.2-1.2,4.7  c-0.3,1.1-0.9,2.3-1.7,3.7c1.6,0.5,3.2,0.7,4.9,0.7c3.1,0,6-0.8,8.6-2.3c2.6-1.5,4.7-3.6,6.2-6.2c1.5-2.6,2.3-5.5,2.3-8.6  S38.3,16,36.8,13.4z"></path>
</svg>