<svg width="44px" height="44px" viewBox="0 0 44 44" version="1.1" xmlns="http://www.w3.org/2000/svg" xmlns:xlink="http://www.w3.org/1999/xlink">
  <title>Icon / TikTok</title>
  <g id="Icon-/-TikTok" stroke="none" stroke-width="1" fill="none" fill-rule="evenodd">
    <path d="M22.5167904,5.02868903 C24.3709518,5 26.2144876,5.01700091 28.0558983,5 C28.1674667,7.16867817 28.9473833,9.37773348 30.534843,10.9110028 C32.119115,12.4825241 34.360047,13.2018749 36.5404133,13.4452004 L36.5404133,19.1500672 C34.4971168,19.0831261 32.4442573,18.6581034 30.590096,17.7783065 C29.7825529,17.412787 29.0302628,16.9420744 28.293911,16.4607363 C28.284348,20.600457 28.3109119,24.734865 28.2673471,28.8575849 C28.1568412,30.8381906 27.5033688,32.8092332 26.3515574,34.4413202 C24.4984586,37.1582776 21.2820995,38.9295596 17.9786108,38.9848126 C15.9523153,39.1006312 13.9281448,38.5481018 12.2014902,37.5301725 C9.34002509,35.8428325 7.3264802,32.7539802 7.03321456,29.4388034 C6.99921274,28.7300781 6.98752462,28.0224154 7.01621365,27.330691 C7.27122725,24.6349847 8.60473587,22.0561597 10.6745963,20.3018786 C13.0207214,18.2585821 16.3072092,17.2852802 19.3843733,17.8611859 C19.4130623,19.9597354 19.3291204,22.0561597 19.3291204,24.1547091 C17.9233579,23.6999349 16.2806453,23.8274417 15.0523298,24.6806747 C14.1555319,25.2618932 13.4744331,26.1523156 13.1195392,27.1596194 C12.8262735,27.8779077 12.9102155,28.6758877 12.9272164,29.4388034 C13.2640469,31.7636774 15.4996661,33.7177191 17.8861684,33.5062704 C19.4683153,33.4892695 20.9845836,32.5712205 21.8091276,31.2270863 C22.0758293,30.7563737 22.3744078,30.2750355 22.3903461,29.7214435 C22.529541,27.1872458 22.4742881,24.6636738 22.491289,22.1294761 C22.5029771,16.418234 22.4742881,10.7229302 22.5178529,5.02975159 L22.5167904,5.02868903 Z" id="Path" fill="#A7ADB3" fill-rule="nonzero"></path>
  </g>
</svg>